<?xml version="1.0" encoding="utf-8"?>
<!-- Generator: Adobe Illustrator 19.2.1, SVG Export Plug-In . SVG Version: 6.00 Build 0)  -->
<svg version="1.1" id="Layer_1" xmlns="http://www.w3.org/2000/svg" xmlns:xlink="http://www.w3.org/1999/xlink" x="0px" y="0px"
	 viewBox="0 0 514.1 350.6" style="enable-background:new 0 0 514.1 350.6;" xml:space="preserve">
<style type="text/css">
	.st0{fill:#D9CEBB;}
	.st1{fill:#6D6E71;}
	.st2{opacity:0.2;}
	.st3{fill:#7FA591;}
	.st4{fill:#D99951;}
	.st5{opacity:0.4;}
	.st6{opacity:0.6;}
	.st7{opacity:0.85;}
	.st8{fill:#601314;}
	.st9{fill:#8C1D1C;}
	.st10{fill:#771D27;}
	.st11{fill:#FFFFFF;}
</style>
<g>
	<g>
		<circle class="st0" cx="258.2" cy="175.3" r="175.3"/>
		<rect x="42.3" y="130" class="st0" width="434.1" height="102.4"/>
	</g>
	<polygon class="st0" points="0,166.2 60,166.2 60,240.8 0,240.8 30,203.5 	"/>
	<polygon class="st0" points="514.1,166.2 454.1,166.2 454.1,240.8 514.1,240.8 484.1,203.5 	"/>
</g>
<g>
	<circle cx="258.2" cy="175.3" r="146.3"/>
	<g>
		<path class="st1" d="M372.8,102.2l-116.9,67.2l2.5,11.4l126.9,37.7c0.1-0.4,0.3-0.9,0.6-1.5c0.9-2.4,1.7-5.1,2.7-9
			c1.7-6.7,2.6-12.4,2.9-14.7c0.4-2.4,0.8-5.5,1.1-9.4c0.1-1.5,0.6-7.5,0.2-15.3c-0.7-15.2-3.9-27.5-4.6-30
			c-1.2-4.6-4-13.7-9.2-24.6c-2.1-4.3-4.1-7.9-5.7-10.6l-0.8-1.6"/>
		<path class="st1" d="M141.6,247.4l116.9-67.2l-2.5-11.4l-126.9-37.7c-0.1,0.4-0.3,0.9-0.6,1.5c-0.9,2.4-1.7,5.1-2.7,9
			c-1.7,6.7-2.6,12.4-2.9,14.7c-0.4,2.4-0.8,5.5-1.1,9.4c-0.1,1.5-0.6,7.5-0.2,15.3c0.7,15.2,3.9,27.5,4.6,30
			c1.2,4.6,4,13.7,9.2,24.6c2.1,4.3,4.1,7.9,5.7,10.6l0.8,1.6"/>
	</g>
</g>
<g>
	<g class="st2">
		<g>
			<g>
				<path class="st3" d="M277.9,304.7C265,221.1,252,137.5,239.1,54c-0.2-1.4-0.4-2.8-0.6-4.2l12.8-2l1.5,5.2
					c-0.1,0.1-0.3,0.3-0.4,0.5c-0.4,0.7-0.3,1.7,0.8,4.2c0.6,1.3,0.9,1.9,1.7,3.8c0.7,1.6,0.9,2.2,0.6,2.8c-0.4,0.8-1.5,1-1.4,1.6
					c0,0.4,0.4,0.5,0.7,1c0.3,0.7,0.1,1.5,0,1.7c-0.7,2.9,10.5,42,11.7,47.4c0.2,0.7,0.5,2.3,1.1,4.5c0.6,1.8,0.8,2.1,1.2,3.6
					c0.3,1.3,0.4,1.7,0.8,4.2c0,0,0.3,1.4,0.7,3.8c1,5,8,11.5,13.8,19.5c0,0,1.8,2.5,4,6.7c0.6,1.1,1.1,2.2,1.6,3.8
					c0.7,2.3,0.7,4.1,0.7,4.6c0.1,3.5,2.3,13.4,7.4,50.1c2.1,15.2,4.7,30.4,6.4,45.6c0.1,0.8,0.4,3.7,1.2,7.5
					c0.3,1.3,0.6,2.6,0.7,3.1c0.7,3,1,4,1.4,5.6c0.9,3.7,1.1,6.6,1.1,7.2c0.3,3.8,0.4,5.7-0.4,7.4c-1.1,2.6-3.4,3.8-6.9,5.6
					c-2.7,1.4-5.2,2.2-10.2,3.7c-5,1.5-8.7,2.2-11.4,2.7c-0.7,0.1-1.2,0.2-1.6,0.2L277.9,304.7z"/>
				<path class="st3" d="M277.9,304.7C265,221.1,252,137.5,239.1,54c-0.2-1.4-0.4-2.8-0.6-4.2l-12.8,2l0.2,5.5
					c0.2,0.1,0.4,0.2,0.6,0.3c0.6,0.5,0.8,1.5,0.5,4.2c-0.1,1.4-0.3,2-0.5,4.2c-0.2,1.8-0.2,2.4,0.2,2.9c0.6,0.7,1.7,0.5,1.8,1.1
					c0.1,0.4-0.3,0.6-0.3,1.2c-0.1,0.8,0.4,1.5,0.5,1.6c1.5,2.6,2.7,43.2,3.2,48.7c0.1,0.7,0.2,2.3,0.3,4.6c0,1.9-0.1,2.2,0,3.8
					c0.1,1.3,0.2,1.8,0.5,4.3c0,0,0.2,1.4,0.4,3.8c0.5,5-4.1,13.4-7.3,22.8c0,0-1,2.9-1.8,7.6c-0.2,1.2-0.4,2.5-0.4,4.1
					c0.1,2.4,0.6,4.1,0.7,4.6c1,3.4,1.9,13.5,8.1,50c2.6,15.1,4.7,30.4,7.7,45.4c0.2,0.8,0.7,3.7,1.2,7.5c0.1,1.3,0.3,2.7,0.3,3.1
					c0.3,3,0.2,4.1,0.4,5.8c0.3,3.8,1,6.6,1.1,7.2c0.9,3.7,1.4,5.5,2.6,7c1.9,2.1,4.4,2.6,8.3,3.3c3,0.5,5.6,0.5,10.8,0.4
					c5.2-0.1,9-0.5,11.7-0.9c0.7-0.1,1.2-0.2,1.6-0.2L277.9,304.7z"/>
			</g>
			<path class="st4" d="M253.2,51.7c0-0.7-0.1-2.1-0.9-3.5c-0.9-1.7-2.2-2.6-2.5-2.9c-1.6-1.1-3.2-1.2-4-1.2
				c-8.2,1.3-14,2.2-14.9,2.3c-0.1,0-0.4,0-0.8,0.2c-0.6,0.2-1,0.4-1.4,0.8c-1,0.7-1.5,1.1-1.9,1.5c-0.8,1-1.2,2-1.2,2.2
				c0,0-0.3,0.9,0,4.3l0,0c0,0.2,0,0.5,0.1,0.6c0.2,0.1,0.7-0.3,0.9-0.4c0.6-0.5,1.7-0.8,3.8-1.3c2.5-0.6,5-1.1,8.7-1.7
				c2.4-0.4,3.4-0.6,5.1-0.8c2.6-0.4,3.8-0.4,5-0.3c1.5,0.1,2.7,0.4,3.5,0.6l0.6,0.1L253.2,51.7z"/>
		</g>
	</g>
	<g class="st5">
		<g>
			<g>
				<path class="st3" d="M255.2,306.3c1.8-84.5,3.5-169.1,5.3-253.6c0-1.4,0.1-2.8,0.1-4.2l12.9,0.3l0.6,5.4
					c-0.1,0.1-0.3,0.2-0.5,0.4c-0.5,0.6-0.6,1.6,0,4.2c0.3,1.4,0.6,2,1.1,4.1c0.4,1.7,0.5,2.4,0.1,2.9c-0.5,0.7-1.6,0.7-1.7,1.3
					c-0.1,0.4,0.3,0.5,0.5,1.1c0.2,0.8-0.2,1.5-0.2,1.7c-1.2,2.8,3.1,43.2,3.3,48.7c0,0.7,0.1,2.3,0.3,4.6c0.2,1.9,0.4,2.2,0.5,3.7
					c0.1,1.3,0,1.8,0.1,4.3c0,0,0,1.4,0.1,3.9c0.1,5.1,5.9,12.7,10.2,21.6c0,0,1.4,2.8,2.8,7.3c0.4,1.2,0.7,2.4,0.9,4
					c0.3,2.4,0,4.2-0.1,4.6c-0.5,3.5-0.1,13.6-1.4,50.7c-0.5,15.4-0.7,30.7-1.6,46.1c0,0.8-0.2,3.8-0.2,7.6c0,1.4,0.1,2.7,0.1,3.1
					c0.1,3,0.3,4.1,0.4,5.8c0.2,3.8-0.1,6.7-0.2,7.3c-0.4,3.8-0.6,5.7-1.7,7.3c-1.6,2.3-4,3.1-7.8,4.3c-2.9,0.9-5.5,1.2-10.7,1.8
					c-5.2,0.6-8.9,0.7-11.7,0.7c-0.7,0-1.2,0-1.6,0L255.2,306.3z"/>
				<path class="st3" d="M255.2,306.3c1.8-84.5,3.5-169.1,5.3-253.6c0-1.4,0.1-2.8,0.1-4.2l-12.9-0.3l-0.8,5.4
					c0.1,0.1,0.3,0.2,0.5,0.4c0.5,0.6,0.6,1.6-0.2,4.2c-0.4,1.3-0.6,2-1.2,4c-0.5,1.7-0.6,2.3-0.3,2.9c0.5,0.8,1.6,0.8,1.6,1.4
					c0,0.4-0.4,0.5-0.5,1.1c-0.2,0.8,0.1,1.5,0.2,1.7c1.1,2.8-4.8,43-5.3,48.5c-0.1,0.7-0.2,2.3-0.5,4.6c-0.3,1.9-0.5,2.2-0.7,3.7
					c-0.2,1.3-0.1,1.8-0.2,4.3c0,0-0.1,1.4-0.2,3.9c-0.3,5.1-6.4,12.4-11.1,21.2c0,0-1.5,2.7-3.1,7.2c-0.4,1.2-0.8,2.4-1.1,3.9
					c-0.4,2.4-0.1,4.2-0.1,4.6c0.4,3.5-0.5,13.6-0.7,50.7c-0.1,15.4-0.6,30.7-0.3,46.1c0,0.8,0.1,3.8-0.2,7.6
					c-0.1,1.4-0.2,2.7-0.2,3.1c-0.3,3-0.5,4.1-0.6,5.7c-0.4,3.8-0.2,6.7-0.2,7.3c0.2,3.8,0.4,5.7,1.4,7.3c1.5,2.4,3.9,3.3,7.6,4.6
					c2.9,1,5.4,1.5,10.6,2.3c5.2,0.8,8.9,1.1,11.7,1.2c0.7,0,1.2,0,1.6,0L255.2,306.3z"/>
			</g>
			<path class="st4" d="M274.7,53c0.1-0.7,0.2-2-0.3-3.6c-0.6-1.9-1.7-3-2-3.3c-1.4-1.3-3-1.8-3.7-1.9c-8.3-0.1-14.2-0.3-15.1-0.3
				c-0.1,0-0.4,0-0.8,0c-0.6,0.1-1,0.3-1.5,0.5c-1.1,0.5-1.7,0.8-2.2,1.2c-1,0.8-1.5,1.8-1.6,1.9c0,0-0.4,0.9-0.7,4.2l0,0
				c-0.1,0.2-0.1,0.5,0,0.6c0.2,0.2,0.8-0.2,0.9-0.3c0.7-0.4,1.8-0.5,4-0.7c2.6-0.2,5.1-0.2,8.8-0.2c2.4,0,3.4,0,5.2,0.1
				c2.6,0.1,3.8,0.3,4.9,0.5c1.4,0.4,2.6,0.8,3.3,1.2l0.5,0.2L274.7,53z"/>
		</g>
	</g>
	<g class="st6">
		<g>
			<g>
				<path class="st3" d="M232.5,304.1c16.4-83,32.8-165.9,49.2-248.9c0.3-1.4,0.5-2.8,0.8-4.1l12.7,2.5l-0.4,5.4
					c-0.2,0-0.4,0.1-0.6,0.3c-0.6,0.5-0.9,1.5-0.7,4.2c0.1,1.4,0.2,2.1,0.3,4.2c0.1,1.8,0.1,2.4-0.4,2.9c-0.6,0.6-1.7,0.4-1.9,1
					c-0.1,0.4,0.2,0.6,0.3,1.2c0.1,0.8-0.4,1.4-0.5,1.6c-1.6,2.5-4.5,43-5.2,48.5c-0.1,0.7-0.3,2.3-0.5,4.6c-0.1,1.9,0,2.2-0.1,3.8
					c-0.1,1.3-0.3,1.8-0.7,4.2c0,0-0.2,1.4-0.6,3.8c-0.8,5,3.6,13.5,6.3,23.1c0,0,0.9,3,1.5,7.7c0.2,1.3,0.3,2.5,0.2,4.1
					c-0.2,2.4-0.8,4.1-0.9,4.5c-1.1,3.4-2.4,13.4-10.2,49.7c-3.2,15-6,30.1-9.6,45.1c-0.2,0.8-0.9,3.7-1.5,7.4
					c-0.2,1.3-0.4,2.7-0.4,3.1c-0.4,3-0.4,4.1-0.6,5.8c-0.4,3.8-1.3,6.6-1.4,7.2c-1.1,3.7-1.6,5.5-2.9,6.9c-2,2-4.5,2.4-8.4,2.9
					c-3,0.4-5.6,0.3-10.8-0.1c-5.2-0.3-8.9-0.9-11.7-1.4c-0.7-0.1-1.2-0.2-1.6-0.3L232.5,304.1z"/>
				<path class="st3" d="M232.5,304.1c16.4-83,32.8-165.9,49.2-248.9c0.3-1.4,0.5-2.8,0.8-4.1l-12.7-2.5l-1.7,5.2
					c0.1,0.1,0.3,0.3,0.4,0.5c0.4,0.7,0.3,1.7-0.9,4.1c-0.6,1.3-1,1.8-1.9,3.7c-0.8,1.6-1,2.2-0.8,2.8c0.4,0.8,1.4,1,1.4,1.6
					c0,0.4-0.4,0.4-0.7,1c-0.4,0.7-0.2,1.5-0.1,1.7c0.6,2.9-12.2,41.5-13.7,46.9c-0.2,0.7-0.6,2.3-1.3,4.4c-0.6,1.8-0.9,2-1.3,3.5
					c-0.4,1.3-0.4,1.7-1,4.2c0,0-0.3,1.4-0.9,3.8c-1.2,4.9-8.4,11.1-14.6,18.9c0,0-1.9,2.4-4.3,6.5c-0.6,1.1-1.2,2.2-1.7,3.7
					c-0.8,2.3-0.9,4.1-0.9,4.5c-0.2,3.5-2.8,13.3-9.5,49.8c-2.8,15.1-5.9,30.2-8.3,45.3c-0.1,0.8-0.6,3.7-1.5,7.4
					c-0.3,1.3-0.7,2.6-0.8,3c-0.8,2.9-1.2,3.9-1.6,5.6c-1,3.6-1.4,6.6-1.4,7.2c-0.4,3.8-0.6,5.7,0.1,7.5c1,2.6,3.2,3.9,6.7,5.9
					c2.7,1.5,5.1,2.4,10,4.1c4.9,1.7,8.6,2.6,11.3,3.2c0.7,0.1,1.2,0.2,1.6,0.3L232.5,304.1z"/>
			</g>
			<path class="st4" d="M295.8,57.9c0.2-0.7,0.6-2,0.4-3.6c-0.3-1.9-1.2-3.2-1.4-3.6c-1.2-1.6-2.6-2.3-3.3-2.5
				c-8.1-1.6-13.9-2.7-14.8-2.9c-0.1,0-0.4-0.1-0.8-0.1c-0.6,0-1.1,0.1-1.6,0.2c-1.2,0.3-1.8,0.5-2.3,0.8c-1.1,0.6-1.8,1.5-1.9,1.6
				c0,0-0.6,0.8-1.4,4l0,0c-0.1,0.2-0.2,0.5-0.1,0.6c0.2,0.2,0.8,0,1-0.1c0.8-0.3,1.9-0.2,4,0c2.6,0.3,5.1,0.7,8.7,1.4
				c2.4,0.4,3.4,0.6,5.1,1c2.6,0.6,3.7,0.9,4.8,1.4c1.3,0.6,2.4,1.3,3.1,1.8l0.5,0.3L295.8,57.9z"/>
		</g>
	</g>
	<g class="st7">
		<g>
			<g>
				<path class="st3" d="M220.1,299.9c30.6-78.8,61.1-157.7,91.7-236.5c0.5-1.3,1-2.6,1.5-3.9l12,4.7l-1.3,5.3
					c-0.2,0-0.4,0.1-0.6,0.2c-0.7,0.4-1.1,1.3-1.4,4c-0.2,1.4-0.2,2.1-0.4,4.2c-0.2,1.8-0.3,2.4-0.9,2.8c-0.7,0.5-1.7,0.1-2,0.7
					c-0.2,0.3,0.1,0.6,0.1,1.2c-0.1,0.8-0.7,1.3-0.8,1.5c-2,2.2-11.9,41.6-13.6,46.9c-0.2,0.7-0.7,2.2-1.2,4.4
					c-0.4,1.8-0.4,2.2-0.8,3.7c-0.4,1.3-0.6,1.7-1.4,4.1c0,0-0.5,1.3-1.3,3.6c-1.6,4.8,1.2,13.9,2.2,23.8c0,0,0.3,3.1,0.1,7.8
					c0,1.3-0.1,2.5-0.5,4c-0.6,2.3-1.5,3.9-1.7,4.3c-1.7,3.1-4.7,12.8-18.6,47.1c-5.8,14.2-11.1,28.6-17.3,42.7
					c-0.3,0.7-1.5,3.4-2.7,7.1c-0.4,1.3-0.8,2.6-1,3c-0.9,2.9-1.1,4-1.6,5.6c-1.1,3.6-2.4,6.3-2.6,6.8c-1.7,3.4-2.5,5.1-4.1,6.2
					c-2.3,1.6-4.8,1.6-8.8,1.4c-3.1-0.1-5.6-0.7-10.6-1.9c-5.1-1.2-8.6-2.4-11.2-3.4c-0.6-0.2-1.1-0.4-1.5-0.6L220.1,299.9z"/>
				<path class="st3" d="M220.1,299.9c30.6-78.8,61.1-157.7,91.7-236.5c0.5-1.3,1-2.6,1.5-3.9l-12-4.7l-2.6,4.8
					c0.1,0.1,0.2,0.3,0.3,0.6c0.3,0.8,0,1.7-1.6,3.9c-0.8,1.1-1.3,1.6-2.5,3.4c-1,1.4-1.4,2-1.2,2.6c0.2,0.9,1.2,1.2,1.1,1.9
					c-0.1,0.4-0.5,0.4-0.9,0.9c-0.5,0.6-0.4,1.4-0.4,1.6c0,3-19.3,38.7-21.6,43.8c-0.3,0.6-0.9,2.1-2.1,4.1
					c-0.9,1.6-1.2,1.9-1.9,3.2c-0.6,1.2-0.7,1.6-1.7,4c0,0-0.5,1.3-1.5,3.5c-2,4.6-10.2,9.5-17.7,16.1c0,0-2.3,2.1-5.4,5.7
					c-0.8,1-1.6,2-2.3,3.3c-1.1,2.1-1.6,3.9-1.7,4.3c-0.9,3.4-5.1,12.6-18,47.4c-5.3,14.4-11.1,28.7-16,43.2
					c-0.3,0.7-1.2,3.6-2.7,7.1c-0.5,1.2-1.1,2.5-1.3,2.9c-1.3,2.8-1.8,3.7-2.6,5.2c-1.6,3.4-2.5,6.2-2.6,6.8
					c-1.1,3.6-1.6,5.5-1.2,7.4c0.6,2.7,2.5,4.4,5.5,7c2.3,2,4.6,3.2,9.2,5.8c4.6,2.5,8,4.1,10.6,5.1c0.6,0.2,1.1,0.4,1.5,0.6
					L220.1,299.9z"/>
			</g>
			<path class="st4" d="M325.1,68.5c0.3-0.6,0.9-1.8,1-3.5c0.1-2-0.6-3.4-0.8-3.8c-0.9-1.7-2.2-2.7-2.8-3.1
				c-7.7-3-13.2-5.1-14.1-5.5c-0.1,0-0.4-0.2-0.8-0.3c-0.6-0.1-1.1-0.1-1.6,0c-1.2,0.1-1.9,0.2-2.4,0.4c-1.2,0.4-2,1.1-2.1,1.3
				c0,0-0.7,0.7-2.1,3.7l0,0c-0.1,0.2-0.3,0.4-0.2,0.6c0.1,0.2,0.8,0.1,1,0.1c0.8-0.1,1.9,0.2,4,0.7c2.5,0.7,4.9,1.6,8.3,2.9
				c2.3,0.8,3.2,1.2,4.9,1.8c2.5,1,3.5,1.5,4.5,2.2c1.2,0.8,2.1,1.7,2.7,2.3l0.4,0.4L325.1,68.5z"/>
		</g>
	</g>
	<g class="st7">
		<g>
			<g>
				<path class="st3" d="M220.1,299.9c30.6-78.8,61.1-157.7,91.7-236.5c0.5-1.3,1-2.6,1.5-3.9l12,4.7l-1.3,5.3
					c-0.2,0-0.4,0.1-0.6,0.2c-0.7,0.4-1.1,1.3-1.4,4c-0.2,1.4-0.2,2.1-0.4,4.2c-0.2,1.8-0.3,2.4-0.9,2.8c-0.7,0.5-1.7,0.1-2,0.7
					c-0.2,0.3,0.1,0.6,0.1,1.2c-0.1,0.8-0.7,1.3-0.8,1.5c-2,2.2-11.9,41.6-13.6,46.9c-0.2,0.7-0.7,2.2-1.2,4.4
					c-0.4,1.8-0.4,2.2-0.8,3.7c-0.4,1.3-0.6,1.7-1.4,4.1c0,0-0.5,1.3-1.3,3.6c-1.6,4.8,1.2,13.9,2.2,23.8c0,0,0.3,3.1,0.1,7.8
					c0,1.3-0.1,2.5-0.5,4c-0.6,2.3-1.5,3.9-1.7,4.3c-1.7,3.1-4.7,12.8-18.6,47.1c-5.8,14.2-11.1,28.6-17.3,42.7
					c-0.3,0.7-1.5,3.4-2.7,7.1c-0.4,1.3-0.8,2.6-1,3c-0.9,2.9-1.1,4-1.6,5.6c-1.1,3.6-2.4,6.3-2.6,6.8c-1.7,3.4-2.5,5.1-4.1,6.2
					c-2.3,1.6-4.8,1.6-8.8,1.4c-3.1-0.1-5.6-0.7-10.6-1.9c-5.1-1.2-8.6-2.4-11.2-3.4c-0.6-0.2-1.1-0.4-1.5-0.6L220.1,299.9z"/>
				<path class="st3" d="M220.1,299.9c30.6-78.8,61.1-157.7,91.7-236.5c0.5-1.3,1-2.6,1.5-3.9l-12-4.7l-2.6,4.8
					c0.1,0.1,0.2,0.3,0.3,0.6c0.3,0.8,0,1.7-1.6,3.9c-0.8,1.1-1.3,1.6-2.5,3.4c-1,1.4-1.4,2-1.2,2.6c0.2,0.9,1.2,1.2,1.1,1.9
					c-0.1,0.4-0.5,0.4-0.9,0.9c-0.5,0.6-0.4,1.4-0.4,1.6c0,3-19.3,38.7-21.6,43.8c-0.3,0.6-0.9,2.1-2.1,4.1
					c-0.9,1.6-1.2,1.9-1.9,3.2c-0.6,1.2-0.7,1.6-1.7,4c0,0-0.5,1.3-1.5,3.5c-2,4.6-10.2,9.5-17.7,16.1c0,0-2.3,2.1-5.4,5.7
					c-0.8,1-1.6,2-2.3,3.3c-1.1,2.1-1.6,3.9-1.7,4.3c-0.9,3.4-5.1,12.6-18,47.4c-5.3,14.4-11.1,28.7-16,43.2
					c-0.3,0.7-1.2,3.6-2.7,7.1c-0.5,1.2-1.1,2.5-1.3,2.9c-1.3,2.8-1.8,3.7-2.6,5.2c-1.6,3.4-2.5,6.2-2.6,6.8
					c-1.1,3.6-1.6,5.5-1.2,7.4c0.6,2.7,2.5,4.4,5.5,7c2.3,2,4.6,3.2,9.2,5.8c4.6,2.5,8,4.1,10.6,5.1c0.6,0.2,1.1,0.4,1.5,0.6
					L220.1,299.9z"/>
			</g>
			<path class="st4" d="M325.1,68.5c0.3-0.6,0.9-1.8,1-3.5c0.1-2-0.6-3.4-0.8-3.8c-0.9-1.7-2.2-2.7-2.8-3.1
				c-7.7-3-13.2-5.1-14.1-5.5c-0.1,0-0.4-0.2-0.8-0.3c-0.6-0.1-1.1-0.1-1.6,0c-1.2,0.1-1.9,0.2-2.4,0.4c-1.2,0.4-2,1.1-2.1,1.3
				c0,0-0.7,0.7-2.1,3.7l0,0c-0.1,0.2-0.3,0.4-0.2,0.6c0.1,0.2,0.8,0.1,1,0.1c0.8-0.1,1.9,0.2,4,0.7c2.5,0.7,4.9,1.6,8.3,2.9
				c2.3,0.8,3.2,1.2,4.9,1.8c2.5,1,3.5,1.5,4.5,2.2c1.2,0.8,2.1,1.7,2.7,2.3l0.4,0.4L325.1,68.5z"/>
		</g>
	</g>
</g>
<g>
	<circle class="st4" cx="259.2" cy="177.1" r="42.9"/>
</g>
<g>
	<g>
		<polygon class="st8" points="26.5,173.8 66.6,173.8 66.6,223.6 26.5,223.6 46.6,198.7 		"/>
		<polygon class="st8" points="482.9,173.8 442.8,173.8 442.8,223.6 482.9,223.6 462.9,198.7 		"/>
	</g>
	<rect x="63.1" y="146.8" class="st9" width="394.5" height="64.6"/>
	<g>
		<polygon class="st10" points="457.6,211.4 442.8,211.4 442.8,223.6 		"/>
		<polygon class="st10" points="63.1,211.4 66.6,223.6 72.2,211.4 		"/>
	</g>
</g>
<g>
	<g>
		<g>
			<path class="st4" d="M452.1,206.4h-4.4V206h0.6c-0.2-0.1-0.4-0.3-0.5-0.5c-0.1-0.2-0.2-0.4-0.2-0.6c0,0,0,0,0,0c0,0,0,0,0,0h0.4
				c0,0,0,0.1,0,0.2c0,0.4,0.2,0.7,0.6,0.9h3.5V206.4z"/>
			<path class="st4" d="M452.2,202.9c0,0.1,0,0.3,0,0.4c0,0.1-0.1,0.2-0.2,0.3s-0.2,0.2-0.3,0.2c-0.1,0.1-0.3,0.1-0.5,0.1
				c-0.2,0-0.4,0-0.7,0h-1.2c-0.3,0-0.5,0-0.7-0.1c-0.2,0-0.4-0.1-0.5-0.1c-0.1-0.1-0.2-0.1-0.3-0.2c-0.1-0.1-0.1-0.2-0.1-0.3
				c0-0.1,0-0.2,0-0.4c0-0.4,0.1-0.7,0.4-0.8c0.3-0.2,0.7-0.2,1.3-0.2l0.4,0v1.8h0.7c0.5,0,0.9-0.1,1.1-0.2s0.3-0.3,0.3-0.5
				c0-0.1,0-0.1,0-0.2c0-0.1,0-0.1-0.1-0.2c0-0.1-0.1-0.1-0.1-0.2c-0.1,0-0.2-0.1-0.3-0.1s-0.3,0-0.4,0h-0.3v-0.4h0.3
				c0.4,0,0.7,0.1,0.9,0.2C452.1,202.2,452.2,202.5,452.2,202.9z M449.6,203.6v-1.4h-0.3c-0.2,0-0.3,0-0.4,0c-0.1,0-0.2,0-0.3,0.1
				s-0.2,0.1-0.3,0.1s-0.1,0.1-0.2,0.2c0,0.1-0.1,0.2-0.1,0.3c0,0.2,0,0.3,0.1,0.4c0.1,0.1,0.2,0.2,0.4,0.2c0.2,0.1,0.5,0.1,0.8,0.1
				H449.6z"/>
			<path class="st4" d="M452.2,199.7c0,0.2,0,0.4-0.1,0.5c-0.1,0.1-0.1,0.2-0.2,0.3s-0.2,0.1-0.4,0.2c-0.2,0-0.3,0.1-0.5,0.1
				c-0.2,0-0.3,0-0.5,0h-1c-0.7,0-1.1-0.1-1.4-0.2c-0.3-0.2-0.4-0.4-0.4-0.9c0-0.2,0-0.3,0.1-0.5c0-0.1,0.1-0.2,0.2-0.3
				c0.1-0.1,0.2-0.1,0.3-0.2c0.1,0,0.3-0.1,0.4-0.1c0.1,0,0.3,0,0.5,0h0.2v0.4h-0.2c-0.4,0-0.7,0.1-0.9,0.2s-0.2,0.3-0.2,0.5
				c0,0.3,0.1,0.5,0.3,0.6s0.6,0.1,1.1,0.1h1.1c0.5,0,0.8,0,1.1-0.1c0.2-0.1,0.3-0.3,0.3-0.6c0-0.3-0.1-0.5-0.3-0.6
				c-0.2-0.1-0.5-0.1-1-0.1h-0.2v-0.4h0.2c0.1,0,0.3,0,0.4,0c0.1,0,0.2,0,0.3,0s0.2,0,0.3,0.1c0.1,0,0.2,0.1,0.2,0.1
				c0.1,0.1,0.1,0.1,0.2,0.2c0,0.1,0.1,0.2,0.1,0.3C452.2,199.4,452.2,199.5,452.2,199.7z"/>
			<path class="st4" d="M451.8,195.6c0.3,0.2,0.4,0.4,0.4,0.9s-0.1,0.7-0.4,0.9c-0.3,0.2-0.7,0.2-1.3,0.2h-1.2c-0.6,0-1-0.1-1.3-0.2
				c-0.3-0.2-0.4-0.4-0.4-0.9c0-0.2,0-0.4,0.1-0.5c0.1-0.1,0.2-0.3,0.3-0.3s0.3-0.1,0.5-0.2c0.2,0,0.4,0,0.7,0h1.2
				C451.1,195.3,451.5,195.4,451.8,195.6z M451.8,196.7c0-0.1,0-0.2,0-0.3s0-0.2,0-0.3c0-0.1-0.1-0.1-0.1-0.2
				c-0.1-0.1-0.1-0.1-0.2-0.1c-0.1,0-0.2-0.1-0.3-0.1c-0.1,0-0.2,0-0.3,0c-0.1,0-0.2,0-0.4,0h-1.2c-0.2,0-0.3,0-0.5,0
				c-0.1,0-0.2,0-0.4,0.1c-0.1,0-0.2,0.1-0.3,0.1c-0.1,0-0.1,0.1-0.2,0.2c0,0.1-0.1,0.2-0.1,0.3s0,0.2,0.1,0.3
				c0,0.1,0.1,0.2,0.2,0.2c0.1,0,0.2,0.1,0.3,0.1c0.1,0,0.2,0,0.4,0.1s0.3,0,0.5,0h1.2c0.2,0,0.3,0,0.4,0c0.1,0,0.2,0,0.3,0
				c0.1,0,0.2,0,0.3-0.1c0.1,0,0.1-0.1,0.2-0.1C451.8,196.8,451.8,196.8,451.8,196.7z"/>
			<path class="st4" d="M452.1,194.1h-4.4v-0.4h0.6c-0.2-0.1-0.4-0.3-0.5-0.5c-0.1-0.2-0.2-0.4-0.2-0.6c0,0,0,0,0,0c0,0,0,0,0,0h0.4
				c0,0,0,0.1,0,0.2c0,0.4,0.2,0.7,0.6,0.9h3.5V194.1z"/>
			<path class="st4" d="M452.2,190.7c0,0.4-0.1,0.6-0.4,0.8c-0.3,0.2-0.8,0.2-1.4,0.2h-0.8c-0.7,0-1.1-0.1-1.4-0.2
				c-0.3-0.1-0.4-0.4-0.4-0.8c0-0.3,0.1-0.6,0.4-0.8H446v-0.4h6.1v0.4h-0.3C452.1,190.1,452.2,190.4,452.2,190.7z M451.9,190.6
				c0-0.3-0.1-0.5-0.4-0.7h-3.1c-0.3,0.2-0.4,0.5-0.4,0.7c0,0.3,0.1,0.4,0.3,0.5c0.2,0.1,0.6,0.1,1.1,0.1h0.9c0.6,0,0.9,0,1.2-0.1
				C451.8,191.1,451.9,190.9,451.9,190.6z"/>
			<path class="st4" d="M452.2,187.3c0,0.3-0.1,0.6-0.3,0.8c-0.2,0.2-0.5,0.3-0.9,0.4l-0.1-0.3c0.7-0.1,1-0.3,1-0.8
				c0-0.2-0.1-0.4-0.2-0.5c-0.1-0.1-0.3-0.2-0.5-0.2c-0.3,0-0.7,0.2-1,0.6l-0.4,0.5c-0.2,0.2-0.4,0.4-0.5,0.5s-0.4,0.1-0.6,0.1
				c-0.3,0-0.5-0.1-0.7-0.3s-0.2-0.4-0.2-0.7c0-0.3,0.1-0.6,0.3-0.7c0.2-0.2,0.5-0.3,0.8-0.3l0.1,0.3c-0.6,0-0.9,0.2-0.9,0.7
				c0,0.2,0.1,0.4,0.2,0.5s0.2,0.2,0.4,0.2c0.2,0,0.3,0,0.4-0.1c0.1-0.1,0.3-0.2,0.4-0.4l0.5-0.5c0.1-0.1,0.2-0.2,0.3-0.3
				c0.1-0.1,0.2-0.2,0.3-0.2s0.2-0.2,0.4-0.2c0.1,0,0.3-0.1,0.4-0.1c0.3,0,0.6,0.1,0.7,0.3C452.1,186.7,452.2,187,452.2,187.3z"/>
			<path class="st4" d="M452.2,181.9c0,0.3-0.1,0.6-0.2,0.8c-0.1,0.2-0.3,0.4-0.5,0.5s-0.4,0.2-0.7,0.2c-0.3,0-0.6-0.1-0.9-0.2
				c-0.3-0.2-0.6-0.4-1-0.8c-0.5,0.3-0.8,0.5-1,0.6s-0.5,0.2-0.7,0.2c-0.4,0-0.7-0.1-0.9-0.3s-0.3-0.5-0.3-0.9
				c0-0.4,0.1-0.7,0.3-0.9c0.2-0.2,0.5-0.3,0.8-0.3c0.3,0,0.6,0.1,0.9,0.3c0.3,0.2,0.7,0.6,1.1,1l2.1-1.3c-0.2-0.2-0.5-0.3-0.8-0.4
				s-0.6-0.2-0.8-0.2v-0.4c0.3,0,0.6,0.1,1,0.2c0.4,0.1,0.7,0.3,0.9,0.5c0.2-0.1,0.3-0.3,0.3-0.4c0.1-0.1,0.1-0.2,0.1-0.4h0.4
				c0,0.1,0,0.1,0,0.2c0,0.3-0.2,0.6-0.6,0.8c0.2,0.2,0.3,0.3,0.4,0.6S452.2,181.7,452.2,181.9z M451.9,181.9c0-0.2,0-0.4-0.1-0.6
				s-0.2-0.3-0.4-0.5l-2.1,1.3c0.3,0.3,0.6,0.5,0.8,0.6c0.2,0.1,0.5,0.2,0.7,0.2c0.1,0,0.2,0,0.3,0c0.1,0,0.2-0.1,0.3-0.1
				c0.1-0.1,0.2-0.1,0.2-0.2s0.1-0.2,0.2-0.3C451.8,182.2,451.9,182.1,451.9,181.9z M448.7,182.1c-0.3-0.3-0.6-0.6-0.9-0.8
				c-0.3-0.2-0.6-0.3-0.8-0.3c-0.2,0-0.4,0.1-0.5,0.2s-0.2,0.4-0.2,0.6c0,0.3,0.1,0.5,0.3,0.7c0.2,0.2,0.4,0.2,0.7,0.2
				c0.2,0,0.4,0,0.7-0.1C448,182.5,448.3,182.3,448.7,182.1z"/>
			<path class="st4" d="M452.2,175.4c0,0.3-0.1,0.6-0.4,0.8h0.4v0.4H446v-0.4h2.1c-0.3-0.2-0.4-0.5-0.4-0.8c0-0.2,0-0.3,0.1-0.4
				s0.1-0.2,0.2-0.3c0.1-0.1,0.2-0.1,0.4-0.2c0.2,0,0.3-0.1,0.5-0.1c0.2,0,0.4,0,0.6,0h0.8c0.6,0,1.1,0.1,1.4,0.2
				C452,174.8,452.2,175,452.2,175.4z M451.9,175.5c0-0.3-0.1-0.4-0.4-0.5c-0.2-0.1-0.6-0.1-1.2-0.1h-0.9c-0.6,0-0.9,0-1.2,0.1
				s-0.3,0.3-0.3,0.5c0,0.3,0.1,0.5,0.4,0.8h3.1C451.7,176,451.9,175.8,451.9,175.5z"/>
			<path class="st4" d="M452.2,172.2c0,0.1,0,0.3,0,0.4c0,0.1-0.1,0.2-0.2,0.3s-0.2,0.2-0.3,0.2c-0.1,0.1-0.3,0.1-0.5,0.1
				c-0.2,0-0.4,0-0.7,0h-1.2c-0.3,0-0.5,0-0.7-0.1c-0.2,0-0.4-0.1-0.5-0.1c-0.1-0.1-0.2-0.1-0.3-0.2c-0.1-0.1-0.1-0.2-0.1-0.3
				c0-0.1,0-0.2,0-0.4c0-0.4,0.1-0.7,0.4-0.8s0.7-0.2,1.3-0.2l0.4,0v1.8h0.7c0.5,0,0.9-0.1,1.1-0.2c0.2-0.1,0.3-0.3,0.3-0.5
				c0-0.1,0-0.1,0-0.2c0-0.1,0-0.1-0.1-0.2c0-0.1-0.1-0.1-0.1-0.2c-0.1,0-0.2-0.1-0.3-0.1s-0.3,0-0.4,0h-0.3v-0.4h0.3
				c0.4,0,0.7,0.1,0.9,0.2C452.1,171.5,452.2,171.8,452.2,172.2z M449.6,172.9v-1.4h-0.3c-0.2,0-0.3,0-0.4,0s-0.2,0-0.3,0.1
				c-0.1,0-0.2,0.1-0.3,0.1s-0.1,0.1-0.2,0.2c0,0.1-0.1,0.2-0.1,0.3c0,0.2,0,0.3,0.1,0.4c0.1,0.1,0.2,0.2,0.4,0.2
				c0.2,0.1,0.5,0.1,0.8,0.1H449.6z"/>
			<path class="st4" d="M452.2,168.9c0,0.1,0,0.3,0,0.4c0,0.1-0.1,0.2-0.2,0.3s-0.2,0.2-0.3,0.2c-0.1,0.1-0.3,0.1-0.5,0.1
				c-0.2,0-0.4,0-0.7,0h-1.2c-0.3,0-0.5,0-0.7-0.1c-0.2,0-0.4-0.1-0.5-0.1c-0.1-0.1-0.2-0.1-0.3-0.2c-0.1-0.1-0.1-0.2-0.1-0.3
				c0-0.1,0-0.2,0-0.4c0-0.4,0.1-0.7,0.4-0.8c0.3-0.2,0.7-0.2,1.3-0.2l0.4,0v1.8h0.7c0.5,0,0.9-0.1,1.1-0.2c0.2-0.1,0.3-0.3,0.3-0.5
				c0-0.1,0-0.1,0-0.2c0-0.1,0-0.1-0.1-0.2c0-0.1-0.1-0.1-0.1-0.2c-0.1,0-0.2-0.1-0.3-0.1s-0.3,0-0.4,0h-0.3v-0.4h0.3
				c0.4,0,0.7,0.1,0.9,0.2C452.1,168.3,452.2,168.6,452.2,168.9z M449.6,169.7v-1.4h-0.3c-0.2,0-0.3,0-0.4,0s-0.2,0-0.3,0.1
				c-0.1,0-0.2,0.1-0.3,0.1s-0.1,0.1-0.2,0.2c0,0.1-0.1,0.2-0.1,0.3c0,0.2,0,0.3,0.1,0.4c0.1,0.1,0.2,0.2,0.4,0.2
				c0.2,0.1,0.5,0.1,0.8,0.1H449.6z"/>
			<path class="st4" d="M452.1,166.7h-4.4v-0.4h0.6c-0.2-0.1-0.4-0.3-0.5-0.5c-0.1-0.2-0.2-0.4-0.2-0.6c0,0,0,0,0,0c0,0,0,0,0,0h0.4
				c0,0,0,0.1,0,0.2c0,0.4,0.2,0.7,0.6,0.9h3.5V166.7z"/>
			<path class="st4" d="M452.2,161.4c0,0.2,0,0.4-0.1,0.5c-0.1,0.1-0.1,0.2-0.2,0.3s-0.2,0.1-0.4,0.2c-0.2,0-0.3,0.1-0.5,0.1
				c-0.2,0-0.3,0-0.5,0h-1c-0.7,0-1.1-0.1-1.4-0.2s-0.4-0.4-0.4-0.9c0-0.2,0-0.3,0.1-0.5c0-0.1,0.1-0.2,0.2-0.3
				c0.1-0.1,0.2-0.1,0.3-0.2c0.1,0,0.3-0.1,0.4-0.1c0.1,0,0.3,0,0.5,0h0.2v0.4h-0.2c-0.4,0-0.7,0.1-0.9,0.2s-0.2,0.3-0.2,0.5
				c0,0.3,0.1,0.5,0.3,0.6c0.2,0.1,0.6,0.1,1.1,0.1h1.1c0.5,0,0.8,0,1.1-0.1c0.2-0.1,0.3-0.3,0.3-0.6c0-0.3-0.1-0.5-0.3-0.6
				c-0.2-0.1-0.5-0.1-1-0.1h-0.2v-0.4h0.2c0.1,0,0.3,0,0.4,0s0.2,0,0.3,0s0.2,0,0.3,0.1c0.1,0,0.2,0.1,0.2,0.1
				c0.1,0.1,0.1,0.1,0.2,0.2c0,0.1,0.1,0.2,0.1,0.3C452.2,161.1,452.2,161.2,452.2,161.4z"/>
			<path class="st4" d="M451.8,157.3c0.3,0.2,0.4,0.4,0.4,0.9s-0.1,0.7-0.4,0.9c-0.3,0.2-0.7,0.2-1.3,0.2h-1.2c-0.6,0-1-0.1-1.3-0.2
				c-0.3-0.2-0.4-0.4-0.4-0.9c0-0.2,0-0.4,0.1-0.5c0.1-0.1,0.2-0.3,0.3-0.3c0.1-0.1,0.3-0.1,0.5-0.2c0.2,0,0.4,0,0.7,0h1.2
				C451.1,157,451.5,157.1,451.8,157.3z M451.8,158.4c0-0.1,0-0.2,0-0.3s0-0.2,0-0.3c0-0.1-0.1-0.1-0.1-0.2
				c-0.1-0.1-0.1-0.1-0.2-0.1c-0.1,0-0.2-0.1-0.3-0.1c-0.1,0-0.2,0-0.3,0c-0.1,0-0.2,0-0.4,0h-1.2c-0.2,0-0.3,0-0.5,0
				s-0.2,0-0.4,0.1c-0.1,0-0.2,0.1-0.3,0.1c-0.1,0-0.1,0.1-0.2,0.2c0,0.1-0.1,0.2-0.1,0.3s0,0.2,0.1,0.3c0,0.1,0.1,0.2,0.2,0.2
				c0.1,0,0.2,0.1,0.3,0.1c0.1,0,0.2,0,0.4,0.1c0.1,0,0.3,0,0.5,0h1.2c0.2,0,0.3,0,0.4,0c0.1,0,0.2,0,0.3,0c0.1,0,0.2,0,0.3-0.1
				c0.1,0,0.1-0.1,0.2-0.1C451.8,158.6,451.8,158.5,451.8,158.4z"/>
			<path class="st4" d="M452.1,155.8h-0.8v-0.5h0.8V155.8z"/>
		</g>
	</g>
	<g>
		<path class="st11" d="M87.4,204.1c-8.4,0-12.8-4.9-13.2-14.6l7.6-1.6c0.2,6.3,2,9.5,5.4,9.5c1.3,0,2.3-0.4,2.9-1.2
			c0.6-0.8,1-1.9,1-3.3c0-1.3-0.2-2.5-0.7-3.6s-1-2-1.7-2.7c-0.6-0.7-1.5-1.6-2.7-2.6l-6.3-5.4c-1.8-1.6-3.2-3.3-4.1-5
			s-1.4-3.9-1.4-6.5c0-3.7,1.1-6.6,3.3-8.6c2.2-2.1,5.2-3.1,9-3.1c1.7,0,3.3,0.2,4.6,0.6c1.3,0.5,2.5,1.1,3.3,1.8s1.6,1.7,2.2,2.8
			c0.6,1.1,1,2.3,1.3,3.5c0.3,1.2,0.5,2.6,0.6,4.1l-7.4,1.5c0-1-0.1-1.8-0.2-2.5c-0.1-0.7-0.2-1.4-0.4-2.2c-0.2-0.7-0.5-1.3-0.8-1.8
			c-0.3-0.5-0.8-0.8-1.4-1.1c-0.6-0.3-1.2-0.4-2-0.3c-1.3,0.1-2.3,0.5-2.9,1.3c-0.7,0.8-1,1.8-1,3.1c0,1.5,0.3,2.8,0.9,3.8
			s1.5,2,2.8,3.2l6.2,5.4c1,0.9,1.9,1.9,2.7,2.7c0.8,0.9,1.5,1.9,2.2,3c0.7,1.1,1.2,2.4,1.6,3.7s0.5,2.8,0.5,4.3
			c0,3.5-1.1,6.3-3.3,8.5C93.9,203,91,204.1,87.4,204.1z"/>
		<path class="st11" d="M101.5,203.5v-47.7h13.7c8.1,0,12.2,4.5,12.2,13.6c0,4.4-1.1,7.7-3.3,9.7c-2.2,2.1-5.4,3.1-9.4,3.1h-4.5
			v21.3H101.5z M110.2,176.1h2.8c2.5,0,4.1-0.5,5-1.5c0.9-1,1.3-2.7,1.3-5.3c0-1.5-0.1-2.6-0.2-3.4s-0.4-1.5-0.8-2.2
			s-1.1-1.1-1.9-1.4s-2-0.4-3.4-0.4h-2.8V176.1z"/>
		<path class="st11" d="M129.4,203.5v-47.7h8.6v47.7H129.4z"/>
		<path class="st11" d="M142.3,203.5v-47.7h6l11.7,27v-27h7.2v47.7h-5.7l-11.8-28.4v28.4H142.3z"/>
		<path class="st11" d="M187.5,203.5v-41.3h-8v-6.4h24.4v6.4h-7.7v41.3H187.5z"/>
		<path class="st11" d="M204.9,203.5v-47.7h8.7v19.9h9.7v-19.9h8.7v47.7h-8.7v-21.6h-9.7v21.6H204.9z"/>
		<path class="st11" d="M236.2,203.5v-47.7h20v6.1h-11.3v13.7h8.9v6.1h-8.9v15.7h11.4v6H236.2z"/>
		<path class="st11" d="M269.9,203.5v-47.7h11.7c2.2,0,4.1,0.2,5.8,0.6c1.6,0.4,3.1,1,4.4,2c1.3,0.9,2.2,2.2,2.9,3.8
			c0.7,1.6,1,3.6,0.9,5.8c0,5.9-2.4,9.2-7,9.9c2.8,0.5,4.9,1.8,6.3,3.7c1.4,1.9,2.1,4.6,2.1,8.1c0,4.5-1.1,8-3.4,10.3
			s-5.6,3.5-10,3.5H269.9z M278.5,175.3h2.7c2.6,0,4.3-0.5,5.3-1.6c1-1.1,1.4-2.9,1.4-5.5c0-1.3-0.2-2.4-0.5-3.3
			c-0.3-0.8-0.8-1.5-1.6-1.9c-0.7-0.4-1.6-0.7-2.5-0.8s-2.1-0.2-3.6-0.2h-1.2V175.3z M278.5,197.4h3.2c2.6,0,4.4-0.6,5.4-1.8
			c1-1.2,1.5-3.2,1.5-6c0-2.9-0.6-5-1.7-6.3c-1.1-1.3-3-1.9-5.7-1.9h-2.7V197.4z"/>
		<path class="st11" d="M312.6,204.1c-4.9,0-8.4-1.3-10.6-4c-2.1-2.7-3.2-6.6-3.2-11.7v-17.6c0-2.5,0.2-4.7,0.7-6.6
			c0.5-1.9,1.3-3.5,2.3-4.8c1.1-1.4,2.5-2.4,4.3-3.1c1.8-0.7,3.9-1,6.4-1c4.9,0,8.4,1.3,10.5,3.9s3.2,6.5,3.2,11.6v17.6
			c0,2.5-0.2,4.7-0.7,6.6s-1.3,3.5-2.3,4.9c-1.1,1.4-2.5,2.4-4.3,3.2C317.2,203.7,315.1,204.1,312.6,204.1z M310.4,197.3
			c0.6,0.2,1.3,0.4,2.2,0.4s1.6-0.1,2.2-0.4c0.6-0.2,1.1-0.6,1.4-1s0.6-0.9,0.8-1.6c0.2-0.7,0.3-1.3,0.4-2s0.1-1.4,0.1-2.3v-21.7
			c0-1.2-0.1-2.1-0.2-2.9c-0.1-0.8-0.3-1.5-0.7-2.2c-0.3-0.7-0.8-1.2-1.5-1.5c-0.7-0.3-1.5-0.5-2.6-0.5s-1.9,0.2-2.6,0.5
			c-0.7,0.3-1.2,0.8-1.5,1.5c-0.3,0.7-0.5,1.4-0.7,2.2c-0.1,0.8-0.2,1.7-0.2,2.9v21.7c0,0.9,0,1.7,0.1,2.3c0.1,0.7,0.2,1.3,0.4,2
			c0.2,0.7,0.5,1.2,0.8,1.6C309.4,196.7,309.8,197,310.4,197.3z"/>
		<path class="st11" d="M334.4,203.5v-41.3h-8v-6.4h24.4v6.4h-7.7v41.3H334.4z"/>
		<path class="st11" d="M356.4,203.5v-41.3h-8v-6.4h24.4v6.4h-7.7v41.3H356.4z"/>
		<path class="st11" d="M373.7,203.5v-47.7h8.7v41.7h11.4v6H373.7z"/>
		<path class="st11" d="M395.4,203.5v-47.7h20v6.1h-11.3v13.7h8.9v6.1h-8.9v15.7h11.4v6H395.4z"/>
		<path class="st11" d="M429.7,204.1c-8.4,0-12.8-4.9-13.2-14.6l7.6-1.6c0.2,6.3,2,9.5,5.4,9.5c1.3,0,2.3-0.4,2.9-1.2
			c0.6-0.8,1-1.9,1-3.3c0-1.3-0.2-2.5-0.7-3.6c-0.5-1.1-1-2-1.7-2.7c-0.6-0.7-1.5-1.6-2.7-2.6l-6.3-5.4c-1.8-1.6-3.2-3.3-4.1-5
			s-1.4-3.9-1.4-6.5c0-3.7,1.1-6.6,3.3-8.6c2.2-2.1,5.2-3.1,9-3.1c1.7,0,3.3,0.2,4.6,0.6c1.3,0.5,2.5,1.1,3.3,1.8
			c0.9,0.8,1.6,1.7,2.2,2.8s1,2.3,1.3,3.5c0.3,1.2,0.5,2.6,0.6,4.1l-7.4,1.5c0-1-0.1-1.8-0.2-2.5s-0.2-1.4-0.4-2.2
			c-0.2-0.7-0.5-1.3-0.8-1.8c-0.3-0.5-0.8-0.8-1.4-1.1c-0.6-0.3-1.2-0.4-2-0.3c-1.3,0.1-2.3,0.5-2.9,1.3c-0.7,0.8-1,1.8-1,3.1
			c0,1.5,0.3,2.8,0.9,3.8s1.5,2,2.8,3.2l6.2,5.4c1,0.9,1.9,1.9,2.7,2.7s1.5,1.9,2.2,3c0.7,1.1,1.2,2.4,1.6,3.7s0.5,2.8,0.5,4.3
			c0,3.5-1.1,6.3-3.3,8.5C436.1,203,433.2,204.1,429.7,204.1z"/>
	</g>
</g>
<g>
</g>
<g>
</g>
<g>
</g>
<g>
</g>
<g>
</g>
<g>
</g>
</svg>
