<?xml version="1.0" encoding="utf-8"?>
<!-- Generator: Adobe Illustrator 17.1.0, SVG Export Plug-In . SVG Version: 6.00 Build 0)  -->
<!DOCTYPE svg PUBLIC "-//W3C//DTD SVG 1.1//EN" "http://www.w3.org/Graphics/SVG/1.1/DTD/svg11.dtd">
<svg version="1.1" id="Capa_1" xmlns="http://www.w3.org/2000/svg" xmlns:xlink="http://www.w3.org/1999/xlink" x="0px" y="0px"
	 viewBox="0 0 1280 800" enable-background="new 0 0 1280 800" xml:space="preserve">
<g>
	<path fill="#DC9926" d="M682.3,189.4c24.9-17.2,41.6-49,41.6-85.4c0-49.3-10-99.6-83.9-99.6s-83.9,50.4-83.9,99.6
		c0,36.4,16.8,68.2,41.6,85.4c-55,16.5-95,64.3-95,120.6c0,29,14.8,49.6,43.9,61.3c21.3,8.5,51,12.5,93.3,12.5
		c42.3,0,71.9-4,93.3-12.5c29.2-11.6,43.9-32.2,43.9-61.3C777.2,253.8,737.3,206,682.3,189.4z"/>
	<path fill="#DC9926" d="M419.5,562c24.9-17.2,41.6-49,41.6-85.4c0-49.3-10-99.6-83.9-99.6s-83.9,50.4-83.9,99.6
		c0,36.4,16.8,68.2,41.6,85.4c-55,16.5-94.9,64.3-94.9,120.6c0,29,14.8,49.6,43.9,61.3c21.3,8.5,51,12.5,93.3,12.5s71.9-4,93.3-12.5
		c29.2-11.6,43.9-32.2,43.9-61.3C514.4,626.3,474.5,578.5,419.5,562z"/>
	<path fill="#DC9926" d="M945.1,562c24.9-17.2,41.6-49,41.6-85.4c0-49.3-10-99.6-83.9-99.6s-83.9,50.4-83.9,99.6
		c0,36.4,16.8,68.2,41.6,85.4c-55,16.5-94.9,64.3-94.9,120.6c0,29,14.8,49.6,43.9,61.3c21.3,8.5,51,12.5,93.3,12.5
		c42.3,0,71.9-4,93.3-12.5c29.2-11.6,43.9-32.2,43.9-61.3C1040,626.3,1000.1,578.5,945.1,562z"/>
	<path fill="#DC9926" d="M732.7,749.3c-1-2.4-2.8-4.3-5.2-5.4c-2.4-1-5.1-1.1-7.5-0.1c-21.1,8.4-47.2,12.5-80,12.5
		s-58.9-4.1-80-12.5c-2.4-1-5.1-0.9-7.5,0.1c-2.4,1-4.3,3-5.2,5.4l-7.3,18.2c-2,5,0.4,10.7,5.5,12.7c25.8,10.3,56.7,15.3,94.5,15.3
		c37.8,0,68.7-5,94.5-15.3c5-2,7.5-7.7,5.5-12.7L732.7,749.3z"/>
	<path fill="#DC9926" d="M351,327.2l18,7.7c1.3,0.5,2.6,0.8,3.9,0.8c3.8,0,7.4-2.2,9-5.9c8.9-20.9,24.5-42.2,47.7-65.4
		c23.2-23.1,44.5-38.7,65.4-47.7c2.4-1,4.3-3,5.2-5.4c1-2.4,0.9-5.1-0.1-7.5l-7.7-18c-2.1-5-7.9-7.3-12.9-5.1
		c-25.5,10.9-50.9,29.3-77.6,56c-26.7,26.7-45.1,52.1-56,77.7C343.7,319.3,346,325,351,327.2z"/>
	<path fill="#DC9926" d="M785,216.7c20.9,8.9,42.2,24.5,65.4,47.7c23.1,23.1,38.7,44.5,47.7,65.4c1.6,3.7,5.2,5.9,9,5.9
		c1.3,0,2.6-0.3,3.9-0.8l18-7.7c5-2.1,7.3-7.9,5.1-12.9c-10.9-25.5-29.3-50.9-56-77.7c-26.7-26.7-52.1-45.1-77.6-56
		c-5-2.1-10.7,0.2-12.9,5.1l-7.7,18c-1,2.4-1.1,5.1-0.1,7.5C780.7,213.7,782.6,215.7,785,216.7z"/>
</g>
</svg>
