<?xml version="1.0" encoding="utf-8"?>
<!-- Generator: Adobe Illustrator 17.1.0, SVG Export Plug-In . SVG Version: 6.00 Build 0)  -->
<!DOCTYPE svg PUBLIC "-//W3C//DTD SVG 1.1//EN" "http://www.w3.org/Graphics/SVG/1.1/DTD/svg11.dtd">
<svg version="1.1" id="Capa_1" xmlns="http://www.w3.org/2000/svg" xmlns:xlink="http://www.w3.org/1999/xlink" x="0px" y="0px"
	 viewBox="0 0 1280 800" enable-background="new 0 0 1280 800" xml:space="preserve">
<g>
	<path fill="#DC9926" d="M1028.8,687.4L837.3,489.5c-13.7-14.2-30.9-19.9-38.3-12.6c-7.5,7.2-24.6,1.5-38.4-12.7l-2.7-2.8
		c85.7-112.7,77.4-274.2-25.5-377.1c-112.4-112.4-294.5-112.4-406.9,0c-112.4,112.4-112.4,294.5,0,406.8
		c104.7,104.7,269.9,111.7,382.9,21.3l1.2,1.3c13.7,14.2,18.8,31.5,11.3,38.8c-7.5,7.2-2.4,24.6,11.4,38.7l191.4,198
		c13.7,14.2,36.4,14.6,50.6,0.8l53.7-52C1042.1,724.3,1042.5,701.6,1028.8,687.4z M669.1,427.9c-77.3,77.3-203.1,77.3-280.4,0
		c-77.3-77.3-77.3-203.1,0-280.5c77.3-77.3,203.1-77.3,280.4,0C746.4,224.8,746.4,350.6,669.1,427.9z"/>
</g>
</svg>
